# xmcd
#
# Track frame offsets:
#	150
#	12225
#	24440
#	36755
#	46865
#	56615
#	66675
#	78155
#	87682
#	99665
#	113187
#	125175
#	135742
#	147750
#	159635
#	173430
#
# Disc length: 2474 seconds
#
# Revision: 3
# Processed by: cddbd v1.5.1PL0 Copyright (c) Steve Scherf et al.
# Submitted via: EasyCDDAExtractor 7.0.5.1
#
DISCID=db09a810
DTITLE=Loretta Lynn - Country Music Hall Of Fame Series
DYEAR=1991
DGENRE=Country
TTITLE0=Success
TTITLE1=Mr. and Mrs. Used To Be
TTITLE2=Blue Kentucky Girl
TTITLE3=You Ain't Woman Enough
TTITLE4=Don't Come Home A Drinkin' (with Lovin' On Your Mind)
TTITLE5=Fist City
TTITLE6=I'm A Honky Tonk Girl
TTITLE7=Your Squaw Is On the Warpath
TTITLE8=Wings Upon Your Horns
TTITLE9=Coal Miner's Daughter
TTITLE10=AfterThe Fire Is Gone
TTITLE11=You're Looking At Country
TTITLE12=One's On The Way
TTITLE13=The Pill
TTITLE14=When The Tingle Becomes A Chill
TTITLE15=Out Of My Head And Back In My Bed
EXTD=
EXTT0=
EXTT1=
EXTT2=
EXTT3=
EXTT4=
EXTT5=
EXTT6=
EXTT7=
EXTT8=
EXTT9=
EXTT10=
EXTT11=
EXTT12=
EXTT13=
EXTT14=
EXTT15=
PLAYORDER=
